<mxfile host="app.diagrams.net" agent="Mozilla/5.0 (Macintosh; Intel Mac OS X 10_15_7) AppleWebKit/537.36 (KHTML, like Gecko) Chrome/128.0.0.0 Safari/537.36" version="24.7.7">
  <diagram name="第 1 页" id="0yjeEngTQqA_D9xydlYo">
    <mxGraphModel dx="1434" dy="819" grid="1" gridSize="10" guides="1" tooltips="1" connect="1" arrows="1" fold="1" page="1" pageScale="1" pageWidth="827" pageHeight="1169" math="0" shadow="0">
      <root>
        <mxCell id="0" />
        <mxCell id="1" parent="0" />
        <mxCell id="T3hblJsC_VW6ChBZ5VcX-1" value="A" style="ellipse;whiteSpace=wrap;html=1;aspect=fixed;" vertex="1" parent="1">
          <mxGeometry x="260" y="210" width="40" height="40" as="geometry" />
        </mxCell>
        <mxCell id="T3hblJsC_VW6ChBZ5VcX-2" value="B" style="ellipse;whiteSpace=wrap;html=1;aspect=fixed;" vertex="1" parent="1">
          <mxGeometry x="220" y="270" width="40" height="40" as="geometry" />
        </mxCell>
        <mxCell id="T3hblJsC_VW6ChBZ5VcX-3" value="C" style="ellipse;whiteSpace=wrap;html=1;aspect=fixed;" vertex="1" parent="1">
          <mxGeometry x="300" y="270" width="40" height="40" as="geometry" />
        </mxCell>
        <mxCell id="T3hblJsC_VW6ChBZ5VcX-4" value="D" style="ellipse;whiteSpace=wrap;html=1;aspect=fixed;" vertex="1" parent="1">
          <mxGeometry x="180" y="330" width="40" height="40" as="geometry" />
        </mxCell>
        <mxCell id="T3hblJsC_VW6ChBZ5VcX-7" value="" style="endArrow=classic;html=1;rounded=0;entryX=0.8;entryY=-0.025;entryDx=0;entryDy=0;entryPerimeter=0;exitX=0.2;exitY=1.025;exitDx=0;exitDy=0;exitPerimeter=0;" edge="1" parent="1" source="T3hblJsC_VW6ChBZ5VcX-1" target="T3hblJsC_VW6ChBZ5VcX-2">
          <mxGeometry width="50" height="50" relative="1" as="geometry">
            <mxPoint x="274" y="255" as="sourcePoint" />
            <mxPoint x="244" y="275" as="targetPoint" />
          </mxGeometry>
        </mxCell>
        <mxCell id="T3hblJsC_VW6ChBZ5VcX-8" value="" style="endArrow=classic;html=1;rounded=0;exitX=0.275;exitY=-0.025;exitDx=0;exitDy=0;exitPerimeter=0;entryX=0.275;entryY=-0.025;entryDx=0;entryDy=0;entryPerimeter=0;" edge="1" parent="1" target="T3hblJsC_VW6ChBZ5VcX-3">
          <mxGeometry width="50" height="50" relative="1" as="geometry">
            <mxPoint x="294" y="250" as="sourcePoint" />
            <mxPoint x="320" y="276" as="targetPoint" />
          </mxGeometry>
        </mxCell>
        <mxCell id="T3hblJsC_VW6ChBZ5VcX-9" value="" style="endArrow=classic;html=1;rounded=0;entryX=0.2;entryY=1.025;entryDx=0;entryDy=0;entryPerimeter=0;exitX=0.8;exitY=-0.025;exitDx=0;exitDy=0;exitPerimeter=0;" edge="1" parent="1">
          <mxGeometry width="50" height="50" relative="1" as="geometry">
            <mxPoint x="226" y="310" as="sourcePoint" />
            <mxPoint x="210" y="328" as="targetPoint" />
          </mxGeometry>
        </mxCell>
      </root>
    </mxGraphModel>
  </diagram>
</mxfile>
